<mxfile host="app.diagrams.net" agent="Mozilla/5.0 (Windows NT 10.0; Win64; x64) AppleWebKit/537.36 (KHTML, like Gecko) Chrome/140.0.0.0 Safari/537.36" version="28.2.3" pages="3">
  <diagram name="UC — General (2 actores)" id="RpgbNkqFjMpOVph6frX9">
    <mxGraphModel dx="2500" dy="2104" grid="1" gridSize="10" guides="1" tooltips="1" connect="1" arrows="1" fold="1" page="1" pageScale="1" pageWidth="827" pageHeight="1169" math="0" shadow="0">
      <root>
        <mxCell id="0" />
        <mxCell id="1" parent="0" />
        <mxCell id="7nR4-immep1ePAhaeY6j-1" value="Usuario Cliente" style="shape=umlActor;verticalLabelPosition=bottom;verticalAlign=top;html=1;" vertex="1" parent="1">
          <mxGeometry x="100" y="260" width="40" height="80" as="geometry" />
        </mxCell>
        <mxCell id="7nR4-immep1ePAhaeY6j-2" value="Usuario Veterinario" style="shape=umlActor;verticalLabelPosition=bottom;verticalAlign=top;html=1;" vertex="1" parent="1">
          <mxGeometry x="100" y="520" width="40" height="80" as="geometry" />
        </mxCell>
        <mxCell id="7nR4-immep1ePAhaeY6j-4" value="Autenticarse (Cliente)" style="shape=ellipse;whiteSpace=wrap;html=1;fillColor=#dae8fc;strokeColor=#6c8ebf;" vertex="1" parent="1">
          <mxGeometry x="430" y="130" width="260" height="70" as="geometry" />
        </mxCell>
        <mxCell id="7nR4-immep1ePAhaeY6j-7" value="Agendar cita" style="shape=ellipse;whiteSpace=wrap;html=1;fillColor=#dae8fc;strokeColor=#6c8ebf;" vertex="1" parent="1">
          <mxGeometry x="750" y="230" width="260" height="70" as="geometry" />
        </mxCell>
        <mxCell id="7nR4-immep1ePAhaeY6j-8" value="Reagendar / Cancelar cita" style="shape=ellipse;whiteSpace=wrap;html=1;fillColor=#dae8fc;strokeColor=#6c8ebf;" vertex="1" parent="1">
          <mxGeometry x="840" y="20" width="260" height="70" as="geometry" />
        </mxCell>
        <mxCell id="7nR4-immep1ePAhaeY6j-9" value="Pagar pedido" style="shape=ellipse;whiteSpace=wrap;html=1;fillColor=#dae8fc;strokeColor=#6c8ebf;" vertex="1" parent="1">
          <mxGeometry x="1111" y="340" width="260" height="70" as="geometry" />
        </mxCell>
        <mxCell id="7nR4-immep1ePAhaeY6j-10" value="Autenticarse (Veterinario)" style="shape=ellipse;whiteSpace=wrap;html=1;fillColor=#dae8fc;strokeColor=#6c8ebf;" vertex="1" parent="1">
          <mxGeometry x="200" y="690" width="260" height="70" as="geometry" />
        </mxCell>
        <mxCell id="7nR4-immep1ePAhaeY6j-11" value="Consultar agenda" style="shape=ellipse;whiteSpace=wrap;html=1;fillColor=#dae8fc;strokeColor=#6c8ebf;" vertex="1" parent="1">
          <mxGeometry x="520" y="800" width="260" height="70" as="geometry" />
        </mxCell>
        <mxCell id="7nR4-immep1ePAhaeY6j-12" value="Registrar atención / ficha" style="shape=ellipse;whiteSpace=wrap;html=1;fillColor=#dae8fc;strokeColor=#6c8ebf;" vertex="1" parent="1">
          <mxGeometry x="230" y="450" width="260" height="70" as="geometry" />
        </mxCell>
        <mxCell id="7nR4-immep1ePAhaeY6j-13" value="Generar pedido/cobro" style="shape=ellipse;whiteSpace=wrap;html=1;fillColor=#dae8fc;strokeColor=#6c8ebf;" vertex="1" parent="1">
          <mxGeometry x="980" y="520" width="260" height="70" as="geometry" />
        </mxCell>
        <mxCell id="7nR4-immep1ePAhaeY6j-14" value="Enviar notificación" style="shape=ellipse;whiteSpace=wrap;html=1;fillColor=#dae8fc;strokeColor=#6c8ebf;" vertex="1" parent="1">
          <mxGeometry x="1500" y="360" width="260" height="70" as="geometry" />
        </mxCell>
        <mxCell id="7nR4-immep1ePAhaeY6j-15" value="Registrar pago" style="shape=ellipse;whiteSpace=wrap;html=1;fillColor=#dae8fc;strokeColor=#6c8ebf;" vertex="1" parent="1">
          <mxGeometry x="1280" y="460" width="260" height="70" as="geometry" />
        </mxCell>
        <mxCell id="7nR4-immep1ePAhaeY6j-20" value="" style="edgeStyle=orthogonalEdgeStyle;rounded=1;endArrow=none;labelBackgroundColor=#ffffff;" edge="1" parent="1" source="7nR4-immep1ePAhaeY6j-5" target="7nR4-immep1ePAhaeY6j-8">
          <mxGeometry relative="1" as="geometry" />
        </mxCell>
        <mxCell id="7nR4-immep1ePAhaeY6j-21" value="" style="edgeStyle=orthogonalEdgeStyle;rounded=1;endArrow=none;labelBackgroundColor=#ffffff;" edge="1" parent="1" source="7nR4-immep1ePAhaeY6j-1" target="7nR4-immep1ePAhaeY6j-9">
          <mxGeometry relative="1" as="geometry">
            <Array as="points">
              <mxPoint x="1241" y="330" />
            </Array>
          </mxGeometry>
        </mxCell>
        <mxCell id="7nR4-immep1ePAhaeY6j-22" value="" style="edgeStyle=orthogonalEdgeStyle;rounded=1;endArrow=none;labelBackgroundColor=#ffffff;" edge="1" parent="1" target="7nR4-immep1ePAhaeY6j-10">
          <mxGeometry relative="1" as="geometry">
            <mxPoint x="160" y="590" as="sourcePoint" />
          </mxGeometry>
        </mxCell>
        <mxCell id="7nR4-immep1ePAhaeY6j-23" value="" style="edgeStyle=orthogonalEdgeStyle;rounded=1;endArrow=none;labelBackgroundColor=#ffffff;entryX=0.5;entryY=0;entryDx=0;entryDy=0;" edge="1" parent="1" target="7nR4-immep1ePAhaeY6j-11">
          <mxGeometry relative="1" as="geometry">
            <mxPoint x="150" y="570" as="sourcePoint" />
            <Array as="points">
              <mxPoint x="650" y="571" />
              <mxPoint x="650" y="800" />
            </Array>
          </mxGeometry>
        </mxCell>
        <mxCell id="7nR4-immep1ePAhaeY6j-24" value="" style="edgeStyle=orthogonalEdgeStyle;rounded=1;endArrow=none;labelBackgroundColor=#ffffff;" edge="1" parent="1" target="7nR4-immep1ePAhaeY6j-12">
          <mxGeometry relative="1" as="geometry">
            <mxPoint x="140" y="540" as="sourcePoint" />
            <Array as="points">
              <mxPoint x="360" y="541" />
            </Array>
          </mxGeometry>
        </mxCell>
        <mxCell id="7nR4-immep1ePAhaeY6j-25" value="" style="edgeStyle=orthogonalEdgeStyle;rounded=1;endArrow=none;labelBackgroundColor=#ffffff;entryX=0;entryY=0.5;entryDx=0;entryDy=0;" edge="1" parent="1" target="7nR4-immep1ePAhaeY6j-13">
          <mxGeometry relative="1" as="geometry">
            <mxPoint x="150" y="555" as="sourcePoint" />
            <mxPoint x="970" y="556" as="targetPoint" />
            <Array as="points">
              <mxPoint x="586" y="555" />
              <mxPoint x="980" y="556" />
            </Array>
          </mxGeometry>
        </mxCell>
        <mxCell id="7nR4-immep1ePAhaeY6j-26" value="" style="edgeStyle=orthogonalEdgeStyle;dashed=1;endArrow=open;labelBackgroundColor=#ffffff;" edge="1" parent="1" source="7nR4-immep1ePAhaeY6j-7" target="7nR4-immep1ePAhaeY6j-14">
          <mxGeometry relative="1" as="geometry" />
        </mxCell>
        <mxCell id="7nR4-immep1ePAhaeY6j-27" value="" style="edgeStyle=orthogonalEdgeStyle;dashed=1;endArrow=open;labelBackgroundColor=#ffffff;" edge="1" parent="1" source="7nR4-immep1ePAhaeY6j-8" target="7nR4-immep1ePAhaeY6j-14">
          <mxGeometry relative="1" as="geometry" />
        </mxCell>
        <mxCell id="7nR4-immep1ePAhaeY6j-28" value="" style="edgeStyle=orthogonalEdgeStyle;dashed=1;endArrow=open;labelBackgroundColor=#ffffff;" edge="1" parent="1" source="7nR4-immep1ePAhaeY6j-13" target="7nR4-immep1ePAhaeY6j-14">
          <mxGeometry x="0.1262" relative="1" as="geometry">
            <mxPoint as="offset" />
          </mxGeometry>
        </mxCell>
        <mxCell id="7nR4-immep1ePAhaeY6j-29" value="" style="edgeStyle=orthogonalEdgeStyle;dashed=1;endArrow=open;labelBackgroundColor=#ffffff;" edge="1" parent="1" source="7nR4-immep1ePAhaeY6j-9" target="7nR4-immep1ePAhaeY6j-15">
          <mxGeometry relative="1" as="geometry" />
        </mxCell>
        <mxCell id="7nR4-immep1ePAhaeY6j-5" value="Registrarse (Cliente)" style="shape=ellipse;whiteSpace=wrap;html=1;fillColor=#dae8fc;strokeColor=#6c8ebf;" vertex="1" parent="1">
          <mxGeometry x="260" y="20" width="260" height="70" as="geometry" />
        </mxCell>
        <mxCell id="7nR4-immep1ePAhaeY6j-6" value="Gestionar mascotas" style="shape=ellipse;whiteSpace=wrap;html=1;fillColor=#dae8fc;strokeColor=#6c8ebf;" vertex="1" parent="1">
          <mxGeometry x="620" y="390" width="260" height="70" as="geometry" />
        </mxCell>
        <mxCell id="7nR4-immep1ePAhaeY6j-34" value="" style="edgeStyle=orthogonalEdgeStyle;rounded=1;endArrow=none;labelBackgroundColor=#ffffff;entryX=0;entryY=0.5;entryDx=0;entryDy=0;exitX=0.5;exitY=0;exitDx=0;exitDy=0;exitPerimeter=0;" edge="1" parent="1" source="7nR4-immep1ePAhaeY6j-1" target="7nR4-immep1ePAhaeY6j-5">
          <mxGeometry relative="1" as="geometry">
            <mxPoint x="120" y="210" as="sourcePoint" />
            <mxPoint x="610" y="310" as="targetPoint" />
            <Array as="points">
              <mxPoint x="120" y="55" />
            </Array>
          </mxGeometry>
        </mxCell>
        <mxCell id="7nR4-immep1ePAhaeY6j-35" value="" style="edgeStyle=orthogonalEdgeStyle;rounded=1;endArrow=none;labelBackgroundColor=#ffffff;exitX=0.75;exitY=0.1;exitDx=0;exitDy=0;exitPerimeter=0;" edge="1" parent="1" source="7nR4-immep1ePAhaeY6j-1">
          <mxGeometry relative="1" as="geometry">
            <mxPoint x="150" y="260" as="sourcePoint" />
            <mxPoint x="430" y="160" as="targetPoint" />
            <Array as="points">
              <mxPoint x="150" y="268" />
              <mxPoint x="150" y="160" />
            </Array>
          </mxGeometry>
        </mxCell>
        <mxCell id="7nR4-immep1ePAhaeY6j-39" value="" style="endArrow=none;html=1;rounded=0;exitX=1;exitY=0.3333333333333333;exitDx=0;exitDy=0;exitPerimeter=0;entryX=0;entryY=0.5;entryDx=0;entryDy=0;" edge="1" parent="1" source="7nR4-immep1ePAhaeY6j-1" target="7nR4-immep1ePAhaeY6j-7">
          <mxGeometry width="50" height="50" relative="1" as="geometry">
            <mxPoint x="1220" y="610" as="sourcePoint" />
            <mxPoint x="1270" y="560" as="targetPoint" />
          </mxGeometry>
        </mxCell>
        <mxCell id="7nR4-immep1ePAhaeY6j-95" value="Sistema Akuma no Pet" style="swimlane;whiteSpace=wrap;html=1;" vertex="1" parent="1">
          <mxGeometry x="190" y="-20" width="1600" height="950" as="geometry" />
        </mxCell>
      </root>
    </mxGraphModel>
  </diagram>
  <diagram name="UC — Usuario Cliente" id="len9_D_waw55-Wr_coLJ">
    <mxGraphModel dx="1280" dy="720" grid="1" gridSize="10" guides="1" tooltips="1" connect="1" arrows="1" fold="1" page="1" pageScale="1" pageWidth="2200" pageHeight="1400" math="0" shadow="0">
      <root>
        <mxCell id="0" />
        <mxCell id="1" parent="0" />
        <mxCell id="2000" value="Usuario Cliente" style="shape=umlActor;verticalLabelPosition=bottom;verticalAlign=top;html=1;" vertex="1" parent="1">
          <mxGeometry x="100" y="340" width="40" height="80" as="geometry" />
        </mxCell>
        <mxCell id="2001" value="Akuma no Pet — Cliente" style="shape=rectangle;dashed=1;html=1;strokeColor=#6c8ebf;fillColor=none;fontStyle=1;" vertex="1" parent="1">
          <mxGeometry x="360" y="200" width="1000" height="360" as="geometry" />
        </mxCell>
        <mxCell id="2002" value="Autenticarse (Cliente)" style="shape=ellipse;whiteSpace=wrap;html=1;fillColor=#dae8fc;strokeColor=#6c8ebf;" vertex="1" parent="1">
          <mxGeometry x="420" y="240" width="260" height="70" as="geometry" />
        </mxCell>
        <mxCell id="2003" value="Registrarse (Cliente)" style="shape=ellipse;whiteSpace=wrap;html=1;fillColor=#dae8fc;strokeColor=#6c8ebf;" vertex="1" parent="1">
          <mxGeometry x="420" y="330" width="260" height="70" as="geometry" />
        </mxCell>
        <mxCell id="2004" value="Gestionar mascotas" style="shape=ellipse;whiteSpace=wrap;html=1;fillColor=#dae8fc;strokeColor=#6c8ebf;" vertex="1" parent="1">
          <mxGeometry x="420" y="420" width="260" height="70" as="geometry" />
        </mxCell>
        <mxCell id="2005" value="Agendar cita" style="shape=ellipse;whiteSpace=wrap;html=1;fillColor=#dae8fc;strokeColor=#6c8ebf;" vertex="1" parent="1">
          <mxGeometry x="760" y="270" width="260" height="70" as="geometry" />
        </mxCell>
        <mxCell id="2006" value="Reagendar / Cancelar cita" style="shape=ellipse;whiteSpace=wrap;html=1;fillColor=#dae8fc;strokeColor=#6c8ebf;" vertex="1" parent="1">
          <mxGeometry x="760" y="360" width="260" height="70" as="geometry" />
        </mxCell>
        <mxCell id="2007" value="Pagar pedido" style="shape=ellipse;whiteSpace=wrap;html=1;fillColor=#dae8fc;strokeColor=#6c8ebf;" vertex="1" parent="1">
          <mxGeometry x="1100" y="310" width="260" height="70" as="geometry" />
        </mxCell>
        <mxCell id="2008" value="Enviar notificación" style="shape=ellipse;whiteSpace=wrap;html=1;fillColor=#dae8fc;strokeColor=#6c8ebf;" vertex="1" parent="1">
          <mxGeometry x="1100" y="400" width="260" height="70" as="geometry" />
        </mxCell>
        <mxCell id="2009" value="Registrar pago" style="shape=ellipse;whiteSpace=wrap;html=1;fillColor=#dae8fc;strokeColor=#6c8ebf;" vertex="1" parent="1">
          <mxGeometry x="1100" y="220" width="260" height="70" as="geometry" />
        </mxCell>
        <mxCell id="2200" value="" style="edgeStyle=orthogonalEdgeStyle;rounded=1;endArrow=none;labelBackgroundColor=#ffffff;" edge="1" parent="1" source="2000" target="2002">
          <mxGeometry relative="1" as="geometry" />
        </mxCell>
        <mxCell id="2201" value="" style="edgeStyle=orthogonalEdgeStyle;rounded=1;endArrow=none;labelBackgroundColor=#ffffff;" edge="1" parent="1" source="2000" target="2003">
          <mxGeometry relative="1" as="geometry" />
        </mxCell>
        <mxCell id="2202" value="" style="edgeStyle=orthogonalEdgeStyle;rounded=1;endArrow=none;labelBackgroundColor=#ffffff;" edge="1" parent="1" source="2000" target="2004">
          <mxGeometry relative="1" as="geometry" />
        </mxCell>
        <mxCell id="2203" value="" style="edgeStyle=orthogonalEdgeStyle;rounded=1;endArrow=none;labelBackgroundColor=#ffffff;" edge="1" parent="1" source="2000" target="2005">
          <mxGeometry relative="1" as="geometry" />
        </mxCell>
        <mxCell id="2204" value="" style="edgeStyle=orthogonalEdgeStyle;rounded=1;endArrow=none;labelBackgroundColor=#ffffff;" edge="1" parent="1" source="2000" target="2006">
          <mxGeometry relative="1" as="geometry" />
        </mxCell>
        <mxCell id="2205" value="" style="edgeStyle=orthogonalEdgeStyle;rounded=1;endArrow=none;labelBackgroundColor=#ffffff;" edge="1" parent="1" source="2000" target="2007">
          <mxGeometry relative="1" as="geometry" />
        </mxCell>
        <mxCell id="2206" value="&amp;laquo;include&amp;raquo;" style="edgeStyle=orthogonalEdgeStyle;dashed=1;endArrow=open;labelBackgroundColor=#ffffff;" edge="1" parent="1" source="2005" target="2008">
          <mxGeometry relative="1" as="geometry" />
        </mxCell>
        <mxCell id="2207" value="&amp;laquo;include&amp;raquo;" style="edgeStyle=orthogonalEdgeStyle;dashed=1;endArrow=open;labelBackgroundColor=#ffffff;" edge="1" parent="1" source="2006" target="2008">
          <mxGeometry relative="1" as="geometry" />
        </mxCell>
        <mxCell id="2208" value="&amp;laquo;include&amp;raquo;" style="edgeStyle=orthogonalEdgeStyle;dashed=1;endArrow=open;labelBackgroundColor=#ffffff;" edge="1" parent="1" source="2007" target="2009">
          <mxGeometry relative="1" as="geometry" />
        </mxCell>
      </root>
    </mxGraphModel>
  </diagram>
  <diagram name="UC — Usuario Veterinario" id="RrQBiw_0ft-z2ZznPRuD">
    <mxGraphModel dx="1280" dy="720" grid="1" gridSize="10" guides="1" tooltips="1" connect="1" arrows="1" fold="1" page="1" pageScale="1" pageWidth="2200" pageHeight="1400" math="0" shadow="0">
      <root>
        <mxCell id="0" />
        <mxCell id="1" parent="0" />
        <mxCell id="3000" value="Usuario Veterinario" style="shape=umlActor;verticalLabelPosition=bottom;verticalAlign=top;html=1;" vertex="1" parent="1">
          <mxGeometry x="100" y="340" width="40" height="80" as="geometry" />
        </mxCell>
        <mxCell id="3001" value="Akuma no Pet — Veterinario" style="shape=rectangle;dashed=1;html=1;strokeColor=#6c8ebf;fillColor=none;fontStyle=1;" vertex="1" parent="1">
          <mxGeometry x="360" y="220" width="1000" height="340" as="geometry" />
        </mxCell>
        <mxCell id="3002" value="Autenticarse (Veterinario)" style="shape=ellipse;whiteSpace=wrap;html=1;fillColor=#dae8fc;strokeColor=#6c8ebf;" vertex="1" parent="1">
          <mxGeometry x="420" y="260" width="300" height="80" as="geometry" />
        </mxCell>
        <mxCell id="3003" value="Consultar agenda" style="shape=ellipse;whiteSpace=wrap;html=1;fillColor=#dae8fc;strokeColor=#6c8ebf;" vertex="1" parent="1">
          <mxGeometry x="760" y="260" width="300" height="80" as="geometry" />
        </mxCell>
        <mxCell id="3004" value="Registrar atención / ficha" style="shape=ellipse;whiteSpace=wrap;html=1;fillColor=#dae8fc;strokeColor=#6c8ebf;" vertex="1" parent="1">
          <mxGeometry x="760" y="350" width="300" height="80" as="geometry" />
        </mxCell>
        <mxCell id="3005" value="Generar pedido/cobro" style="shape=ellipse;whiteSpace=wrap;html=1;fillColor=#dae8fc;strokeColor=#6c8ebf;" vertex="1" parent="1">
          <mxGeometry x="1100" y="300" width="300" height="80" as="geometry" />
        </mxCell>
        <mxCell id="3006" value="Enviar notificación" style="shape=ellipse;whiteSpace=wrap;html=1;fillColor=#dae8fc;strokeColor=#6c8ebf;" vertex="1" parent="1">
          <mxGeometry x="1100" y="380" width="300" height="80" as="geometry" />
        </mxCell>
        <mxCell id="3200" value="" style="edgeStyle=orthogonalEdgeStyle;rounded=1;endArrow=none;labelBackgroundColor=#ffffff;" edge="1" parent="1" source="3000" target="3002">
          <mxGeometry relative="1" as="geometry" />
        </mxCell>
        <mxCell id="3201" value="" style="edgeStyle=orthogonalEdgeStyle;rounded=1;endArrow=none;labelBackgroundColor=#ffffff;" edge="1" parent="1" source="3000" target="3003">
          <mxGeometry relative="1" as="geometry" />
        </mxCell>
        <mxCell id="3202" value="" style="edgeStyle=orthogonalEdgeStyle;rounded=1;endArrow=none;labelBackgroundColor=#ffffff;" edge="1" parent="1" source="3000" target="3004">
          <mxGeometry relative="1" as="geometry" />
        </mxCell>
        <mxCell id="3203" value="" style="edgeStyle=orthogonalEdgeStyle;rounded=1;endArrow=none;labelBackgroundColor=#ffffff;" edge="1" parent="1" source="3000" target="3005">
          <mxGeometry relative="1" as="geometry" />
        </mxCell>
        <mxCell id="3204" value="&amp;laquo;include&amp;raquo;" style="edgeStyle=orthogonalEdgeStyle;dashed=1;endArrow=open;labelBackgroundColor=#ffffff;" edge="1" parent="1" source="3005" target="3006">
          <mxGeometry relative="1" as="geometry" />
        </mxCell>
      </root>
    </mxGraphModel>
  </diagram>
</mxfile>
